<svg xmlns="http://www.w3.org/2000/svg" viewBox="0 0 512 512" role="img" aria-label="Smart Finance IA">
  <defs>
    <linearGradient id="bg" x1="0" y1="0" x2="1" y2="1">
      <stop offset="0%" stop-color="#0f172a" />
      <stop offset="55%" stop-color="#1d4ed8" />
      <stop offset="100%" stop-color="#06b6d4" />
    </linearGradient>
    <linearGradient id="coin" x1="0" y1="0" x2="1" y2="1">
      <stop offset="0%" stop-color="#fde68a" />
      <stop offset="100%" stop-color="#f59e0b" />
    </linearGradient>
    <filter id="shadow" x="-30%" y="-30%" width="160%" height="160%">
      <feDropShadow dx="0" dy="12" stdDeviation="14" flood-color="#0f172a" flood-opacity="0.35" />
    </filter>
  </defs>
  <rect width="512" height="512" rx="120" fill="url(#bg)" />
  <circle cx="404" cy="102" r="66" fill="#facc15" fill-opacity="0.24" />
  <circle cx="102" cy="410" r="54" fill="#67e8f9" fill-opacity="0.24" />

  <g filter="url(#shadow)">
    <rect x="76" y="64" width="360" height="384" rx="84" fill="#f8fafc" stroke="#0f172a" stroke-width="18" />
    <path d="M156 314h48v-88h-48zm78 0h48V182h-48zm78 0h48v-62h-48z" fill="#0f172a" />
    <path d="M150 338h212" stroke="#0f172a" stroke-width="16" stroke-linecap="round" />
    <path d="M160 206l42-24 34 21 58-38 58 28" fill="none" stroke="#2563eb" stroke-width="18" stroke-linecap="round" stroke-linejoin="round" />
    <circle cx="350" cy="168" r="42" fill="url(#coin)" stroke="#854d0e" stroke-width="10" />
    <path d="M338 168h24m-12-12v24" stroke="#7c2d12" stroke-width="8" stroke-linecap="round" />
  </g>

  <rect x="142" y="380" width="228" height="54" rx="27" fill="#0f172a" />
  <text x="256" y="415" text-anchor="middle" font-size="32" font-family="'Space Grotesk', Arial, sans-serif" font-weight="800" fill="#f8fafc" letter-spacing="4">SMART</text>
</svg>
